<svg width="1440" height="5566" viewBox="0 0 1440 5566" fill="none" xmlns="http://www.w3.org/2000/svg">
<g opacity="0.1">
<g filter="url(#filter0_f_62_191)">
<path d="M809.569 840.232C1157.75 840.232 1440 1140.69 1440 1511.33C1440 1881.97 1157.75 2132.59 809.57 2132.59C461.392 2132.59 179.139 1881.97 179.139 1511.33C179.139 1140.69 461.392 840.232 809.569 840.232Z" fill="#4994FF"/>
</g>
<g filter="url(#filter1_f_62_191)">
<path d="M778.565 2191.59C1056.35 2191.59 1281.53 2441.62 1281.53 2750.04C1281.53 3058.47 1056.35 3078.54 778.565 3078.54C500.784 3078.54 275.598 3058.47 275.598 2750.04C275.598 2441.62 500.784 2191.59 778.565 2191.59Z" fill="#4994FF"/>
</g>
<g filter="url(#filter2_f_62_191)">
<path d="M502.966 2937.7C780.747 2937.7 1005.93 3187.72 1005.93 3496.15C1005.93 3804.57 780.747 3824.65 502.967 3824.65C225.186 3824.65 6.58946e-05 3804.57 5.00597e-05 3496.15C3.42249e-05 3187.72 225.186 2937.7 502.966 2937.7Z" fill="#FFB050"/>
</g>
<g filter="url(#filter3_f_62_191)">
<path d="M854.354 3634.32C1132.13 3634.32 1357.32 3884.34 1357.32 4192.77C1357.32 4501.19 1132.13 4521.27 854.354 4521.27C576.573 4521.27 351.388 4501.19 351.387 4192.77C351.387 3884.34 576.573 3634.32 854.354 3634.32Z" fill="#FFB050"/>
</g>
</g>
<path opacity="0.2" d="M-9.07211 5.16861C248.949 39.7776 259.715 612.165 745.799 639.689C1768.4 697.595 -394.231 2231.28 185.223 2365.53C1342.02 2633.53 1174.16 5497.05 1358.45 5561.62M870.964 126.912C637.391 205.726 252.566 459.33 581.848 843.237C993.45 1323.12 1802.86 1580.44 1542.46 2146.29C1282.06 2712.14 287.944 3340.52 920.228 3639.23M65.3288 10.86C299.941 47.5739 291.869 604.781 770.486 649.276C1763.99 727.276 -257.113 2200.18 282.348 2354.98C1371.66 2637.17 1164.45 5394.25 1370.07 5469.97M139.73 16.5524C350.932 55.3713 324.023 597.398 795.173 658.864C1759.58 756.958 -119.996 2169.08 379.473 2344.43C1401.3 2640.8 1154.75 5291.45 1381.7 5378.32M214.131 22.2437C401.924 63.1677 356.177 590.014 819.861 668.451C1755.18 786.639 17.1224 2137.99 476.598 2333.89C1430.94 2644.44 1145.04 5188.66 1393.33 5286.67M288.529 27.9361C452.913 70.9651 388.328 582.632 844.545 678.039C1750.77 816.321 154.238 2106.89 573.72 2323.34C1460.58 2648.08 1135.33 5085.86 1404.95 5195.03M362.93 33.6275C503.905 78.7614 420.482 575.248 869.233 687.625C1746.36 846.002 291.356 2075.79 670.845 2312.8C1490.22 2651.72 1125.62 4983.06 1416.58 5103.38M437.331 39.3188C554.897 86.5578 452.637 567.864 893.92 697.212C1741.95 875.683 428.474 2044.69 767.97 2302.25C1519.85 2655.35 1115.92 4880.27 1428.21 5011.73M511.732 45.0112C605.889 94.3551 484.791 560.481 918.607 706.8C1737.54 905.365 565.592 2013.59 865.094 2291.71C1549.49 2658.99 1106.21 4777.47 1439.83 4920.08M586.133 50.7026C656.88 102.151 516.945 553.097 943.294 716.387C1733.13 935.046 702.709 1982.49 962.219 2281.16C1579.13 2662.63 1096.51 4674.67 1451.46 4828.43M660.534 56.394C707.872 109.948 549.099 545.714 967.982 725.974C1728.73 964.727 839.827 1951.4 1059.34 2270.62C1608.77 2666.27 1086.8 4571.87 1463.09 4736.79M734.935 62.0864C758.864 117.745 581.253 538.331 992.669 735.561C1724.32 994.409 976.945 1920.3 1156.47 2260.07C1638.41 2669.91 1077.09 4469.08 1474.71 4645.14M809.333 67.7777C809.853 125.542 613.404 530.947 1017.35 745.148C1719.91 1024.09 1114.06 1889.2 1253.59 2249.52C1668.05 2673.54 1067.38 4366.28 1486.34 4553.49M883.734 73.4701C860.845 133.339 645.558 523.564 1042.04 754.736C1715.5 1053.77 1251.18 1858.1 1350.72 2238.98C1697.69 2677.18 1057.68 4263.48 1497.97 4461.84M939.753 79.2212C893.454 141.195 659.33 516.24 1048.35 764.383C1692.71 1083.51 1369.91 1827.06 1429.46 2228.49C1708.94 2680.88 1029.59 4160.74 1491.21 4370.26M958.299 85.094C888.591 149.173 635.63 509.038 1017.18 774.151C1632.45 1113.37 1451.18 1796.15 1470.73 2218.13C1682.73 2684.7 964.029 4058.13 1446.98 4278.79M968.737 90.9941C875.62 157.178 603.82 501.863 977.903 783.946C1564.08 1143.26 1524.33 1765.26 1503.89 2207.79C1648.4 2688.54 890.36 3955.54 1394.65 4187.35M959.265 96.9579C842.739 165.247 552.102 494.752 918.718 793.806C1475.8 1173.22 1577.58 1734.43 1517.14 2197.52C1594.17 2692.45 796.781 3853.01 1322.4 4095.97M941.889 102.947C801.953 173.341 492.479 487.666 851.628 803.691C1379.61 1203.2 1622.92 1703.63 1522.49 2187.27C1532.03 2696.39 695.298 3750.51 1242.25 4004.62M924.25 108.939C760.905 181.438 432.593 480.582 784.275 813.577C1283.16 1233.18 1668 1672.83 1527.58 2177.02C1469.63 2700.33 593.552 3648.02 1161.84 3913.28M906.523 114.929C719.769 189.533 372.619 473.498 716.834 823.463C1186.63 1263.16 1712.99 1642.03 1532.57 2166.78C1407.14 2704.26 491.717 3545.52 1081.34 3821.93M888.755 120.921C678.591 197.63 312.604 466.414 649.352 833.351C1090.05 1293.14 1757.93 1611.24 1537.53 2156.53C1344.61 2708.2 389.842 3443.02 1000.79 3730.58" stroke="url(#paint0_linear_62_191)"/>
<defs>
<filter id="filter0_f_62_191" x="-97.2611" y="563.832" width="1813.66" height="1845.16" filterUnits="userSpaceOnUse" color-interpolation-filters="sRGB">
<feFlood flood-opacity="0" result="BackgroundImageFix"/>
<feBlend mode="normal" in="SourceGraphic" in2="BackgroundImageFix" result="shape"/>
<feGaussianBlur stdDeviation="138.2" result="effect1_foregroundBlur_62_191"/>
</filter>
<filter id="filter1_f_62_191" x="-0.801788" y="1915.19" width="1558.73" height="1439.75" filterUnits="userSpaceOnUse" color-interpolation-filters="sRGB">
<feFlood flood-opacity="0" result="BackgroundImageFix"/>
<feBlend mode="normal" in="SourceGraphic" in2="BackgroundImageFix" result="shape"/>
<feGaussianBlur stdDeviation="138.2" result="effect1_foregroundBlur_62_191"/>
</filter>
<filter id="filter2_f_62_191" x="-276.4" y="2661.3" width="1558.73" height="1439.75" filterUnits="userSpaceOnUse" color-interpolation-filters="sRGB">
<feFlood flood-opacity="0" result="BackgroundImageFix"/>
<feBlend mode="normal" in="SourceGraphic" in2="BackgroundImageFix" result="shape"/>
<feGaussianBlur stdDeviation="138.2" result="effect1_foregroundBlur_62_191"/>
</filter>
<filter id="filter3_f_62_191" x="74.9875" y="3357.92" width="1558.73" height="1439.75" filterUnits="userSpaceOnUse" color-interpolation-filters="sRGB">
<feFlood flood-opacity="0" result="BackgroundImageFix"/>
<feBlend mode="normal" in="SourceGraphic" in2="BackgroundImageFix" result="shape"/>
<feGaussianBlur stdDeviation="138.2" result="effect1_foregroundBlur_62_191"/>
</filter>
<linearGradient id="paint0_linear_62_191" x1="786.564" y1="2.5843" x2="804.626" y2="5563.42" gradientUnits="userSpaceOnUse">
<stop offset="1" stop-color="#1A73E8"/>
<stop offset="1" stop-color="#FF8C00"/>
</linearGradient>
</defs>
</svg>
