<svg width="20" height="20" viewBox="0 0 20 20" fill="none" xmlns="http://www.w3.org/2000/svg">
<g clip-path="url(#clip0_611_8815)">
<path d="M11.666 2.72416C11.666 2.13999 11.1927 1.66666 10.6085 1.66666H9.39102C8.80602 1.66666 8.33268 2.13999 8.33268 2.72416C8.33268 3.20582 8.00268 3.61916 7.55352 3.79582C7.48268 3.82416 7.41185 3.85416 7.34268 3.88416C6.90018 4.07582 6.37435 4.01749 6.03268 3.67666C5.83438 3.4785 5.56552 3.36719 5.28518 3.36719C5.00485 3.36719 4.73598 3.4785 4.53768 3.67666L3.67602 4.53832C3.47786 4.73662 3.36655 5.00549 3.36655 5.28582C3.36655 5.56616 3.47786 5.83502 3.67602 6.03332C4.01768 6.37499 4.07602 6.89999 3.88268 7.34332C3.85231 7.41309 3.82314 7.48338 3.79518 7.55416C3.61852 8.00332 3.20518 8.33332 2.72352 8.33332C2.13935 8.33332 1.66602 8.80666 1.66602 9.39082V10.6092C1.66602 11.1933 2.13935 11.6667 2.72352 11.6667C3.20518 11.6667 3.61852 11.9967 3.79518 12.4458C3.82352 12.5167 3.85352 12.5875 3.88268 12.6567C4.07518 13.0992 4.01685 13.625 3.67602 13.9667C3.47786 14.165 3.36655 14.4338 3.36655 14.7142C3.36655 14.9945 3.47786 15.2634 3.67602 15.4617L4.53768 16.3233C4.73598 16.5215 5.00485 16.6328 5.28518 16.6328C5.56552 16.6328 5.83438 16.5215 6.03268 16.3233C6.37435 15.9817 6.89935 15.9233 7.34268 16.1158C7.41185 16.1467 7.48268 16.1758 7.55352 16.2042C8.00268 16.3808 8.33268 16.7942 8.33268 17.2758C8.33268 17.86 8.80602 18.3333 9.39018 18.3333H10.6085C11.1927 18.3333 11.666 17.86 11.666 17.2758C11.666 16.7942 11.996 16.3808 12.4452 16.2033C12.516 16.1758 12.5868 16.1467 12.656 16.1167C13.0985 15.9233 13.6243 15.9825 13.9652 16.3233C14.0634 16.4216 14.18 16.4995 14.3083 16.5527C14.4366 16.6058 14.5742 16.6332 14.7131 16.6332C14.852 16.6332 14.9896 16.6058 15.1179 16.5527C15.2462 16.4995 15.3628 16.4216 15.461 16.3233L16.3227 15.4617C16.5208 15.2634 16.6322 14.9945 16.6322 14.7142C16.6322 14.4338 16.5208 14.165 16.3227 13.9667C15.981 13.625 15.9227 13.1 16.1152 12.6567C16.146 12.5875 16.1752 12.5167 16.2035 12.4458C16.3802 11.9967 16.7935 11.6667 17.2752 11.6667C17.8593 11.6667 18.3327 11.1933 18.3327 10.6092V9.39166C18.3327 8.80749 17.8593 8.33416 17.2752 8.33416C16.7935 8.33416 16.3802 8.00416 16.2027 7.55499C16.1748 7.4842 16.1456 7.41391 16.1152 7.34416C15.9235 6.90166 15.9818 6.37582 16.3227 6.03416C16.5208 5.83586 16.6322 5.56699 16.6322 5.28666C16.6322 5.00632 16.5208 4.73745 16.3227 4.53916L15.461 3.67749C15.2627 3.47933 14.9939 3.36802 14.7135 3.36802C14.4332 3.36802 14.1643 3.47933 13.966 3.67749C13.6243 4.01916 13.0993 4.07749 12.656 3.88499C12.5863 3.85433 12.516 3.82488 12.4452 3.79666C11.996 3.61916 11.666 3.20499 11.666 2.72416Z" stroke="#7E7E7E" stroke-width="1.5" stroke-linecap="round" stroke-linejoin="round"/>
<path d="M13.3327 9.99999C13.3327 10.884 12.9815 11.7319 12.3564 12.357C11.7313 12.9821 10.8834 13.3333 9.99935 13.3333C9.11529 13.3333 8.26745 12.9821 7.64233 12.357C7.0172 11.7319 6.66602 10.884 6.66602 9.99999C6.66602 9.11593 7.0172 8.26809 7.64233 7.64297C8.26745 7.01785 9.11529 6.66666 9.99935 6.66666C10.8834 6.66666 11.7313 7.01785 12.3564 7.64297C12.9815 8.26809 13.3327 9.11593 13.3327 9.99999Z" stroke="#7E7E7E" stroke-width="1.5" stroke-linecap="round" stroke-linejoin="round"/>
</g>
<defs>
<clipPath id="clip0_611_8815">
<rect width="20" height="20" fill="white"/>
</clipPath>
</defs>
</svg>
