<svg width="20" height="20" viewBox="0 0 20 20" fill="none" xmlns="http://www.w3.org/2000/svg">
<path d="M18.109 15L11.4423 3.33335C11.297 3.07685 11.0862 2.8635 10.8314 2.71507C10.5767 2.56664 10.2872 2.48843 9.99234 2.48843C9.69752 2.48843 9.40797 2.56664 9.15324 2.71507C8.8985 2.8635 8.6877 3.07685 8.54234 3.33335L1.87567 15C1.72874 15.2545 1.6517 15.5433 1.65235 15.8371C1.653 16.1309 1.73132 16.4194 1.87938 16.6732C2.02744 16.927 2.23996 17.1372 2.49542 17.2824C2.75088 17.4276 3.04018 17.5027 3.33401 17.5H16.6673C16.9598 17.4997 17.2469 17.4225 17.5001 17.2761C17.7532 17.1297 17.9634 16.9193 18.1094 16.6659C18.2555 16.4126 18.3324 16.1253 18.3323 15.8329C18.3322 15.5405 18.2552 15.2533 18.109 15Z" stroke="#040509" stroke-width="1.5" stroke-linecap="round" stroke-linejoin="round"/>
<path d="M10 7.5V10.8333" stroke="#040509" stroke-width="1.5" stroke-linecap="round" stroke-linejoin="round"/>
<path d="M10 14.1667H10.0083" stroke="#040509" stroke-width="1.5" stroke-linecap="round" stroke-linejoin="round"/>
</svg>
