<svg width="20" height="20" viewBox="0 0 20 20" fill="none" xmlns="http://www.w3.org/2000/svg">
<path fill-rule="evenodd" clip-rule="evenodd" d="M18 7.375C18 3.85975 15.1402 1 11.625 1C8.484 1 5.8305 3.30175 5.334 6.343C2.313 6.8425 0 9.46525 0 12.625C0 16.1402 2.85975 19 6.375 19C9.537 19 12.1612 16.684 12.6585 13.6607C15.7155 13.1605 18 10.4942 18 7.375ZM6.375 17.5C3.687 17.5 1.5 15.313 1.5 12.625C1.5 9.937 3.687 7.75 6.375 7.75C9.063 7.75 11.25 9.937 11.25 12.625C11.25 15.313 9.063 17.5 6.375 17.5ZM12.7237 12.1045C12.471 8.9995 9.987 6.52075 6.8805 6.2755C7.38225 4.1065 9.3315 2.5 11.6258 2.5C14.3138 2.5 16.5007 4.687 16.5007 7.375C16.5007 9.65275 14.9017 11.5982 12.7237 12.1045Z" fill="#444444"/>
</svg>
