<svg width="24" height="24" viewBox="0 0 24 24" fill="none" xmlns="http://www.w3.org/2000/svg">
<path d="M12 12H20M12 4V20M8.26667 4H15.7333C17.2268 4 17.9735 4 18.544 4.29065C19.0458 4.54631 19.4537 4.95426 19.7093 5.45603C20 6.02645 20 6.77319 20 8.26667V15.7333C20 17.2268 20 17.9735 19.7093 18.544C19.4537 19.0458 19.0458 19.4537 18.544 19.7093C17.9735 20 17.2268 20 15.7333 20H8.26667C6.77319 20 6.02645 20 5.45603 19.7093C4.95426 19.4537 4.54631 19.0458 4.29065 18.544C4 17.9735 4 17.2268 4 15.7333V8.26667C4 6.77319 4 6.02645 4.29065 5.45603C4.54631 4.95426 4.95426 4.54631 5.45603 4.29065C6.02645 4 6.77319 4 8.26667 4Z" stroke="#444444" stroke-width="1.77778" stroke-linecap="round" stroke-linejoin="round"/>
</svg>
