<svg width="32" height="32" viewBox="0 0 32 32" fill="none" xmlns="http://www.w3.org/2000/svg">
<path d="M3.98937 21.7893C4.18542 22.2839 4.22907 22.8258 4.1147 23.3453L2.6947 27.732C2.64895 27.9545 2.66078 28.1849 2.72907 28.4015C2.79736 28.6181 2.91985 28.8137 3.08492 28.9697C3.25 29.1257 3.45218 29.2369 3.6723 29.2929C3.89242 29.3488 4.12318 29.3476 4.3427 29.2893L8.89337 27.9587C9.38366 27.8614 9.89141 27.9039 10.3587 28.0813C13.2059 29.411 16.4312 29.6923 19.4656 28.8756C22.4999 28.059 25.1484 26.1969 26.9436 23.6178C28.7389 21.0388 29.5655 17.9086 29.2778 14.7794C28.99 11.6503 27.6063 8.7233 25.3708 6.51494C23.1353 4.30657 20.1916 2.95873 17.0592 2.7092C13.9268 2.45968 10.8069 3.32452 8.24996 5.15113C5.69304 6.97774 3.86341 9.64873 3.08389 12.6929C2.30438 15.737 2.62506 18.9586 3.98937 21.7893Z" stroke="white" stroke-width="2.66667" stroke-linecap="round" stroke-linejoin="round"/>
</svg>
