<svg width="24" height="24" viewBox="0 0 24 24" fill="none" xmlns="http://www.w3.org/2000/svg">
<path d="M17.7627 10.3094H6.23727M17.7627 10.3094L19.2974 12.8671C19.6413 13.4403 19.8133 13.727 19.9026 14.0355C19.9817 14.3088 20.013 14.5939 19.9951 14.878C19.9748 15.1985 19.8691 15.5156 19.6577 16.1498L19.4866 16.6631C19.1628 17.6347 19.0008 18.1205 18.7004 18.4797C18.4352 18.7969 18.0946 19.0423 17.7098 19.1937C17.2741 19.3651 16.762 19.3651 15.7378 19.3651H8.26216C7.23798 19.3651 6.72589 19.3651 6.29017 19.1937C5.9054 19.0423 5.56478 18.7969 5.29954 18.4797C4.99917 18.1205 4.83723 17.6347 4.51336 16.6631L4.34226 16.1498C4.13086 15.5156 4.02517 15.1985 4.00492 14.878C3.98697 14.5939 4.01825 14.3088 4.09739 14.0354C4.1867 13.727 4.35867 13.4403 4.70261 12.8671L6.23727 10.3094M17.7627 10.3094L18.1062 9.10704C18.2691 8.53705 18.3505 8.25204 18.2865 8.02656C18.2305 7.82904 18.1027 7.65959 17.9282 7.55145C17.7289 7.42799 17.4326 7.42799 16.8397 7.42799H7.16027C6.56745 7.42799 6.27104 7.42799 6.07181 7.55145C5.89729 7.65959 5.76947 7.82904 5.71343 8.02656C5.64946 8.25204 5.73089 8.53705 5.89375 9.10704L6.23727 10.3094M12 7.42799H9.08922C8.66035 7.42799 8.24904 7.25453 7.94577 6.94574C7.64251 6.63697 7.47214 6.21818 7.47214 5.7815C7.47214 5.34483 7.64251 4.92603 7.94577 4.61726C8.24904 4.30848 8.66035 4.13501 9.08922 4.13501C11.3531 4.13501 12 7.42799 12 7.42799ZM12 7.42799H14.9107C15.3396 7.42799 15.7509 7.25453 16.0542 6.94574C16.3575 6.63697 16.5278 6.21818 16.5278 5.7815C16.5278 5.34483 16.3575 4.92603 16.0542 4.61726C15.7509 4.30848 15.3396 4.13501 14.9107 4.13501C12.6468 4.13501 12 7.42799 12 7.42799Z" stroke="#444444" stroke-width="1.64649" stroke-linecap="round" stroke-linejoin="round"/>
<circle cx="19" cy="19" r="3" fill="#4994FF"/>
</svg>
