<svg width="24" height="24" viewBox="0 0 24 24" fill="none" xmlns="http://www.w3.org/2000/svg">
<path d="M11.9685 13.3454C9.12733 13.6022 6.96277 16.0029 7.00049 18.8554V19C7.00049 19.5523 7.4482 20.0001 8.00049 20.0001C8.55277 20.0001 9.00049 19.5523 9.00049 19V18.8154C8.97042 17.064 10.2629 15.5704 12.0005 15.3487C13.8346 15.1669 15.469 16.5063 15.6509 18.3405C15.6616 18.4489 15.667 18.5578 15.6671 18.6667V19C15.6671 19.5523 16.1149 20.0001 16.6671 20.0001C17.2194 20.0001 17.6671 19.5523 17.6671 19V18.6667C17.6639 15.7179 15.2707 13.33 12.3219 13.3333C12.204 13.3334 12.0861 13.3374 11.9685 13.3454Z" fill="#444444"/>
<path d="M12.334 12C14.5431 12 16.334 10.2091 16.334 8.00001C16.334 5.79088 14.5431 4 12.334 4C10.1249 4 8.33398 5.79088 8.33398 8.00001C8.33617 10.2082 10.1258 11.9978 12.334 12ZM12.334 6C13.4385 6 14.334 6.89544 14.334 8.00001C14.334 9.10457 13.4385 10 12.334 10C11.2294 10 10.334 9.10457 10.334 8.00001C10.334 6.89544 11.2294 6 12.334 6Z" fill="#444444"/>
</svg>
