<svg width="14" height="14" viewBox="0 0 14 14" fill="none" xmlns="http://www.w3.org/2000/svg">
<g clip-path="url(#clip0_663_2760)">
<path d="M6.41602 1.16666V2.33333" stroke="#4994FF" stroke-width="1.16667" stroke-linecap="round" stroke-linejoin="round"/>
<path d="M2.91602 1.16666V2.33333" stroke="#4994FF" stroke-width="1.16667" stroke-linecap="round" stroke-linejoin="round"/>
<path d="M2.91602 1.75H2.33268C2.02326 1.75 1.72652 1.87292 1.50772 2.09171C1.28893 2.3105 1.16602 2.60725 1.16602 2.91667V5.25C1.16602 6.17826 1.53476 7.0685 2.19114 7.72487C2.84752 8.38125 3.73776 8.75 4.66602 8.75C5.59427 8.75 6.48451 8.38125 7.14089 7.72487C7.79727 7.0685 8.16602 6.17826 8.16602 5.25V2.91667C8.16602 2.60725 8.0431 2.3105 7.82431 2.09171C7.60551 1.87292 7.30877 1.75 6.99935 1.75H6.41602" stroke="#4994FF" stroke-width="1.16667" stroke-linecap="round" stroke-linejoin="round"/>
<path d="M4.66602 8.75C4.66602 9.67826 5.03476 10.5685 5.69114 11.2249C6.34752 11.8813 7.23776 12.25 8.16602 12.25C9.09427 12.25 9.98451 11.8813 10.6409 11.2249C11.2973 10.5685 11.666 9.67826 11.666 8.75V7" stroke="#4994FF" stroke-width="1.16667" stroke-linecap="round" stroke-linejoin="round"/>
<path d="M11.6667 7C12.311 7 12.8333 6.47766 12.8333 5.83333C12.8333 5.189 12.311 4.66666 11.6667 4.66666C11.0223 4.66666 10.5 5.189 10.5 5.83333C10.5 6.47766 11.0223 7 11.6667 7Z" stroke="#4994FF" stroke-width="1.16667" stroke-linecap="round" stroke-linejoin="round"/>
</g>
<defs>
<clipPath id="clip0_663_2760">
<rect width="14" height="14" fill="white"/>
</clipPath>
</defs>
</svg>
