<svg width="20" height="20" viewBox="0 0 20 20" fill="none" xmlns="http://www.w3.org/2000/svg">
<g clip-path="url(#clip0_611_8845)">
<path d="M5.83398 6.66666C7.2147 6.66666 8.33398 5.54737 8.33398 4.16666C8.33398 2.78594 7.2147 1.66666 5.83398 1.66666C4.45327 1.66666 3.33398 2.78594 3.33398 4.16666C3.33398 5.54737 4.45327 6.66666 5.83398 6.66666Z" stroke="#7E7E7E" stroke-width="1.5" stroke-linecap="round" stroke-linejoin="round"/>
<path d="M8.33404 10H4.9157C4.30647 10.0002 3.71827 10.2228 3.2616 10.6261C2.80494 11.0293 2.51125 11.5855 2.4357 12.19L1.90153 16.46C1.87223 16.6945 1.89314 16.9326 1.96287 17.1584C2.03261 17.3843 2.14958 17.5927 2.30601 17.7698C2.46245 17.947 2.65478 18.0889 2.87024 18.186C3.0857 18.2832 3.31935 18.3334 3.5557 18.3333H7.5007" stroke="#7E7E7E" stroke-width="1.5" stroke-linecap="round" stroke-linejoin="round"/>
<path d="M18.0994 16.46L17.5661 12.19C17.4905 11.5852 17.1966 11.0288 16.7395 10.6255C16.2825 10.2222 15.6939 9.99977 15.0844 10H13.2477C12.6385 10.0002 12.0503 10.2228 11.5936 10.6261C11.137 11.0293 10.8433 11.5855 10.7677 12.19L10.2336 16.46C10.2043 16.6946 10.2252 16.9327 10.295 17.1586C10.3647 17.3845 10.4818 17.593 10.6383 17.7701C10.7949 17.9473 10.9873 18.0892 11.2028 18.1863C11.4184 18.2834 11.6521 18.3335 11.8886 18.3333H16.4452C16.6816 18.3334 16.9152 18.2832 17.1307 18.186C17.3462 18.0889 17.5385 17.947 17.6949 17.7698C17.8514 17.5927 17.9683 17.3843 18.0381 17.1584C18.1078 16.9326 18.1287 16.6945 18.0994 16.46Z" stroke="#7E7E7E" stroke-width="1.5" stroke-linecap="round" stroke-linejoin="round"/>
<path d="M14.166 6.66666C15.5467 6.66666 16.666 5.54737 16.666 4.16666C16.666 2.78594 15.5467 1.66666 14.166 1.66666C12.7853 1.66666 11.666 2.78594 11.666 4.16666C11.666 5.54737 12.7853 6.66666 14.166 6.66666Z" stroke="#7E7E7E" stroke-width="1.5" stroke-linecap="round" stroke-linejoin="round"/>
</g>
<defs>
<clipPath id="clip0_611_8845">
<rect width="20" height="20" fill="white"/>
</clipPath>
</defs>
</svg>
